<svg width="22" height="19" viewBox="0 0 22 19" fill="none" xmlns="http://www.w3.org/2000/svg">
<path d="M16.7492 15.9691C16.9967 15.9896 17.2471 16 17.4998 16C18.5482 16 19.5546 15.8208 20.4903 15.4913C20.4966 15.4117 20.4998 15.3312 20.4998 15.25C20.4998 13.5931 19.1567 12.25 17.4998 12.25C16.8722 12.25 16.2896 12.4427 15.808 12.7722M16.7492 15.9691C16.7493 15.9794 16.7493 15.9897 16.7493 16C16.7493 16.225 16.7369 16.4471 16.7128 16.6656C14.956 17.6737 12.9199 18.25 10.7493 18.25C8.5786 18.25 6.54254 17.6737 4.78577 16.6656C4.76165 16.4471 4.74927 16.225 4.74927 16C4.74927 15.9897 4.74929 15.9795 4.74934 15.9692M16.7492 15.9691C16.7433 14.7926 16.3987 13.6961 15.808 12.7722M15.808 12.7722C14.7421 11.1052 12.8747 10 10.7493 10C8.62406 10 6.75692 11.1049 5.69096 12.7716M5.69096 12.7716C5.2095 12.4425 4.62723 12.25 4 12.25C2.34315 12.25 1 13.5931 1 15.25C1 15.3312 1.00323 15.4117 1.00956 15.4913C1.94519 15.8208 2.95167 16 4 16C4.25234 16 4.50226 15.9896 4.74934 15.9692M5.69096 12.7716C5.09997 13.6957 4.75525 14.7924 4.74934 15.9692M13.7493 4C13.7493 5.65685 12.4061 7 10.7493 7C9.09241 7 7.74927 5.65685 7.74927 4C7.74927 2.34315 9.09241 1 10.7493 1C12.4061 1 13.7493 2.34315 13.7493 4ZM19.7493 7C19.7493 8.24264 18.7419 9.25 17.4993 9.25C16.2566 9.25 15.2493 8.24264 15.2493 7C15.2493 5.75736 16.2566 4.75 17.4993 4.75C18.7419 4.75 19.7493 5.75736 19.7493 7ZM6.24927 7C6.24927 8.24264 5.24191 9.25 3.99927 9.25C2.75663 9.25 1.74927 8.24264 1.74927 7C1.74927 5.75736 2.75663 4.75 3.99927 4.75C5.24191 4.75 6.24927 5.75736 6.24927 7Z" stroke="#FF725E" stroke-width="1.5" stroke-linecap="round" stroke-linejoin="round"/>
</svg>
